<svg width="1440" height="1600" viewBox="0 0 1440 1600" fill="none" xmlns="http://www.w3.org/2000/svg">
  <defs>
    <radialGradient id="vignette" cx="0" cy="0" r="1" gradientUnits="userSpaceOnUse" gradientTransform="translate(720 780) rotate(90) scale(920 1180)">
      <stop offset="0" stop-color="#080A0C" stop-opacity="0"/>
      <stop offset="1" stop-color="#000000" stop-opacity="0.62"/>
    </radialGradient>
    <linearGradient id="avatarRing" x1="676" y1="446" x2="764" y2="534" gradientUnits="userSpaceOnUse">
      <stop stop-color="#F3F5F7"/>
      <stop offset="1" stop-color="#BFC6CD"/>
    </linearGradient>
  </defs>

  <rect width="1440" height="1600" fill="#040506"/>

  <g opacity="0.75">
    <path d="M0 0H1440" stroke="rgba(255,255,255,0.05)"/>
  </g>

  <g stroke="rgba(255,255,255,0.05)">
    <path d="M0 80H1440"/>
    <path d="M0 160H1440"/>
    <path d="M0 240H1440"/>
    <path d="M0 320H1440"/>
    <path d="M0 400H1440"/>
    <path d="M0 480H1440"/>
    <path d="M0 560H1440"/>
    <path d="M0 640H1440"/>
    <path d="M0 720H1440"/>
    <path d="M0 800H1440"/>
    <path d="M0 880H1440"/>
    <path d="M0 960H1440"/>
    <path d="M0 1040H1440"/>
    <path d="M0 1120H1440"/>
    <path d="M0 1200H1440"/>
    <path d="M0 1280H1440"/>
    <path d="M0 1360H1440"/>
    <path d="M0 1440H1440"/>
    <path d="M0 1520H1440"/>
    <path d="M80 0V1600"/>
    <path d="M160 0V1600"/>
    <path d="M240 0V1600"/>
    <path d="M320 0V1600"/>
    <path d="M400 0V1600"/>
    <path d="M480 0V1600"/>
    <path d="M560 0V1600"/>
    <path d="M640 0V1600"/>
    <path d="M720 0V1600"/>
    <path d="M800 0V1600"/>
    <path d="M880 0V1600"/>
    <path d="M960 0V1600"/>
    <path d="M1040 0V1600"/>
    <path d="M1120 0V1600"/>
    <path d="M1200 0V1600"/>
    <path d="M1280 0V1600"/>
    <path d="M1360 0V1600"/>
  </g>

  <rect x="8" y="38" width="82" height="44" fill="#D9D9D9" fill-opacity="0.08"/>
  <rect x="166" y="188" width="40" height="40" fill="#7CF29A" fill-opacity="0.26"/>

  <circle cx="720" cy="540" r="70" fill="#D9D9D9" fill-opacity="0.08"/>
  <circle cx="720" cy="540" r="48" fill="#F2F2F2" fill-opacity="0.92" stroke="url(#avatarRing)" stroke-width="4"/>
  <text x="696" y="548" fill="#2E3136" font-family="Arial, sans-serif" font-size="18">头像</text>

  <text x="570" y="705" fill="#F3F5F7" font-family="Arial, sans-serif" font-size="66" font-weight="400">你的名字</text>
  <text x="611" y="770" fill="#B8BEC6" font-family="Courier New, monospace" font-size="18" letter-spacing="3.5">Go 后端学习者  |  持续公开构建中</text>
  <text x="548" y="830" fill="#7E8791" font-family="Arial, sans-serif" font-size="17">从 Hertz 出发，逐步走向 Kitex 与 Eino</text>

  <g>
    <line x1="494" y1="910" x2="946" y2="910" stroke="rgba(255,255,255,0.08)"/>
    <line x1="644" y1="890" x2="644" y2="956" stroke="rgba(255,255,255,0.08)"/>
    <line x1="796" y1="890" x2="796" y2="956" stroke="rgba(255,255,255,0.08)"/>

    <rect x="560" y="874" width="28" height="28" rx="6" stroke="#C9CFD5" stroke-opacity="0.85"/>
    <path d="M568 892H580" stroke="#C9CFD5" stroke-opacity="0.85"/>
    <path d="M568 885H579" stroke="#C9CFD5" stroke-opacity="0.85"/>
    <path d="M579 894L586 887" stroke="#C9CFD5" stroke-opacity="0.85"/>
    <path d="M582 887H586V891" stroke="#C9CFD5" stroke-opacity="0.85"/>
    <text x="549" y="946" fill="#C9CFD5" font-family="Arial, sans-serif" font-size="15">Blog</text>

    <circle cx="720" cy="888" r="14" stroke="#C9CFD5" stroke-opacity="0.85"/>
    <circle cx="715" cy="884" r="2" fill="#C9CFD5" fill-opacity="0.85"/>
    <circle cx="725" cy="884" r="2" fill="#C9CFD5" fill-opacity="0.85"/>
    <path d="M714 892C716 896 724 896 726 892" stroke="#C9CFD5" stroke-opacity="0.85" stroke-linecap="round"/>
    <text x="698" y="946" fill="#C9CFD5" font-family="Arial, sans-serif" font-size="15">About</text>

    <path d="M854 885L870 877L864 894L860 889L854 885Z" stroke="#C9CFD5" stroke-opacity="0.85" stroke-linejoin="round"/>
    <text x="842" y="946" fill="#C9CFD5" font-family="Arial, sans-serif" font-size="15">GitHub</text>
  </g>

  <text x="620" y="1088" fill="#F3F5F7" font-family="Arial, sans-serif" font-size="34">首页结构说明</text>
  <text x="442" y="1140" fill="#7E8791" font-family="Arial, sans-serif" font-size="18">这一版首页不再采用传统大卡片分区，而是把头像、标题和导航都压缩到一个中心舞台里。</text>

  <rect x="268" y="1200" width="904" height="188" rx="26" fill="#FFFFFF" fill-opacity="0.02" stroke="#FFFFFF" stroke-opacity="0.08"/>
  <text x="320" y="1262" fill="#F3F5F7" font-family="Arial, sans-serif" font-size="28">内容页延续方向</text>
  <text x="320" y="1312" fill="#C7CCD3" font-family="Arial, sans-serif" font-size="18">Blog：优先可读性，减少装饰，保留暗色与分割线气质。</text>
  <text x="320" y="1346" fill="#C7CCD3" font-family="Arial, sans-serif" font-size="18">About：强调路线、经历和个人表达，不做复杂卡片堆叠。</text>

  <rect width="1440" height="1600" fill="url(#vignette)"/>
</svg>
